<?xml version="1.0" encoding="utf-8"?>
<!-- Generator: Adobe Illustrator 26.2.1, SVG Export Plug-In . SVG Version: 6.00 Build 0)  -->
<svg version="1.1" id="Layer_1" xmlns="http://www.w3.org/2000/svg" xmlns:xlink="http://www.w3.org/1999/xlink" x="0px" y="0px"
	 viewBox="0 0 170.1 170.1" style="enable-background:new 0 0 170.1 170.1;" xml:space="preserve">
<style type="text/css">
	.st0{clip-path:url(#SVGID_00000083089583019737988330000004241019056560204707_);}
	.st1{fill:#0F4C81;}
	.st2{clip-path:url(#SVGID_00000083089583019737988330000004241019056560204707_);fill:#0F4C81;}
	
		.st3{clip-path:url(#SVGID_00000083089583019737988330000004241019056560204707_);fill:none;stroke:#0F4C81;stroke-width:4;stroke-linecap:round;stroke-linejoin:round;stroke-miterlimit:10;}
	
		.st4{clip-path:url(#SVGID_00000083089583019737988330000004241019056560204707_);fill:none;stroke:#0F4C81;stroke-linecap:round;stroke-linejoin:round;stroke-miterlimit:10;}
</style>
<g>
	<defs>
		<rect id="SVGID_1_" x="-3" y="-2.5" width="176" height="175"/>
	</defs>
	<clipPath id="SVGID_00000181062722666549215520000008184318856970266021_">
		<use xlink:href="#SVGID_1_"  style="overflow:visible;"/>
	</clipPath>
	<g style="clip-path:url(#SVGID_00000181062722666549215520000008184318856970266021_);">
		<path class="st1" d="M22,130.8l0.3-1.3h1c0.9,0,1.6-0.2,2.2-0.5c0.5-0.3,1-1.2,1.3-2.6l4.1-19.3c0.1-0.5,0.2-0.9,0.3-1.3
			c0.1-0.4,0.1-0.7,0.1-0.9c0-0.6-0.2-1-0.6-1.2c-0.4-0.2-1.1-0.2-1.9-0.2h-0.9l0.3-1.3h9.4c5.7,0,8.6,2.3,8.6,6.8
			c0,1.5-0.3,2.8-1,4c-0.6,1.2-1.6,2.2-2.7,3c-1.2,0.8-2.6,1.3-4.3,1.5l2.9,8.8c0.4,1.1,0.8,1.9,1.2,2.4c0.4,0.4,1.1,0.7,2,0.7h0.6
			l-0.3,1.4h-0.8c-1.1,0-2.1-0.1-2.8-0.3c-0.7-0.2-1.3-0.6-1.7-1.2s-0.8-1.5-1.2-2.6l-2.6-8.6h-4.2l-1.8,8.4
			c-0.1,0.3-0.1,0.6-0.2,0.9c0,0.3-0.1,0.5-0.1,0.7c0,0.6,0.2,1,0.6,1.2c0.4,0.2,1,0.3,1.8,0.3h1.8l-0.3,1.3H22z M31.6,116.5h3.8
			c2.4,0,4.3-0.6,5.7-1.9s2.1-3.1,2.1-5.4c0-1.9-0.5-3.3-1.5-4.2s-2.5-1.3-4.5-1.3h-2.9L31.6,116.5z"/>
		<path class="st1" d="M57.1,131.2c-1.3,0-2.5-0.3-3.6-0.9c-1.1-0.6-1.9-1.5-2.6-2.7c-0.7-1.2-1-2.7-1-4.5c0-1.5,0.2-3.1,0.7-4.7
			c0.5-1.6,1.2-3.2,2.1-4.6s2.1-2.6,3.4-3.5c1.4-0.9,2.9-1.3,4.7-1.3c1.5,0,2.8,0.4,3.6,1.2c0.9,0.8,1.3,1.9,1.3,3.3
			c0,1.5-0.5,2.8-1.5,4c-1,1.2-2.4,2.1-4.1,2.8c-1.7,0.7-3.7,1-5.8,1h-1.6c0,0.2-0.1,0.5-0.1,0.9s0,0.7,0,1c0,1.9,0.4,3.4,1.3,4.5
			c0.9,1.1,2,1.6,3.5,1.6c1.3,0,2.4-0.3,3.3-0.9c1-0.6,1.7-1.3,2.3-2.2c0.2,0.1,0.3,0.4,0.3,0.8c0,0.5-0.2,1.1-0.7,1.8
			c-0.5,0.7-1.2,1.2-2.1,1.7C59.7,131,58.5,131.2,57.1,131.2z M53.1,119.9h0.8c1.7,0,3.3-0.3,4.7-0.8c1.4-0.5,2.5-1.3,3.3-2.2
			c0.8-1,1.2-2.1,1.2-3.5c0-0.9-0.2-1.7-0.7-2.2c-0.5-0.5-1.2-0.8-2.1-0.8c-1.2,0-2.3,0.5-3.3,1.4s-1.8,2.1-2.5,3.6
			C53.9,116.9,53.4,118.4,53.1,119.9z"/>
	</g>
	<g style="clip-path:url(#SVGID_00000181062722666549215520000008184318856970266021_);">
		<path class="st1" d="M82.4,131.2c-2.9,0-5.4-0.6-7.3-1.8c-2-1.2-3.4-2.9-4.4-5.1c-1-2.2-1.5-4.8-1.5-7.7c0-2.9,0.5-5.4,1.5-7.6
			c1-2.2,2.5-3.9,4.5-5.2c2-1.2,4.5-1.9,7.4-1.9s5.1,0.4,6.6,1.3c1.4,0.9,2.2,2,2.2,3.2c0,1-0.4,1.7-1.2,2.3
			c-0.8,0.6-1.9,0.9-3.3,0.9c0-0.9-0.1-1.7-0.4-2.5s-0.7-1.5-1.4-2.1c-0.7-0.5-1.5-0.8-2.7-0.8c-2.7,0-4.7,1.1-5.8,3.2
			s-1.6,5.1-1.6,9.1c0,3.8,0.6,6.7,1.9,8.7c1.3,2,3.3,3,6.3,3c1.9,0,3.5-0.4,4.6-1.1c1.1-0.8,2-1.6,2.7-2.5c0.2,0.2,0.4,0.4,0.5,0.7
			c0.1,0.3,0.2,0.6,0.2,1c0,0.7-0.3,1.4-0.9,2.2c-0.6,0.8-1.5,1.4-2.8,2C86.2,130.9,84.5,131.2,82.4,131.2z"/>
		<path class="st1" d="M92.9,130.8v-2h0.6c0.7,0,1.3-0.2,1.8-0.6c0.5-0.4,0.9-1.2,1.4-2.4l8.8-23.6h4.6l8.6,24
			c0.3,1,0.8,1.7,1.2,2.1s1,0.5,1.7,0.5h0.6v2h-12.4v-2h1.3c0.5,0,1-0.1,1.4-0.4c0.4-0.3,0.6-0.7,0.6-1.3c0-0.3,0-0.6-0.1-0.8
			c-0.1-0.3-0.2-0.5-0.3-0.8l-1.4-4.2h-10l-1.3,3.8c-0.1,0.3-0.2,0.7-0.3,1.1c-0.1,0.4-0.1,0.7-0.1,1c0,0.6,0.2,1,0.6,1.3
			c0.4,0.3,0.9,0.4,1.5,0.4h1.4v2H92.9z M102.1,119.1h8.4l-2.2-6.8c-0.3-1-0.7-2.1-1-3.1c-0.3-1.1-0.6-2.1-0.8-3
			c-0.2,0.9-0.5,1.8-0.8,2.8c-0.3,1-0.7,2-1,3.1L102.1,119.1z"/>
		<path class="st1" d="M123.5,130.8v-2h1.2c0.7,0,1.3-0.2,1.8-0.5s0.7-1,0.7-2.2v-19.4c0-1.1-0.3-1.8-0.8-2.1
			c-0.5-0.3-1.1-0.4-1.8-0.4h-1.2v-2h11.9c3.5,0,6.2,0.8,7.9,2.3s2.6,3.6,2.6,6.2c0,1.6-0.4,3.1-1.1,4.5c-0.7,1.4-1.9,2.5-3.6,3.4
			c-1.7,0.9-3.9,1.3-6.7,1.3h-1.8v6.6c0,1.1,0.3,1.8,0.8,2.1c0.5,0.3,1.1,0.4,1.8,0.4h2v2H123.5z M132.7,117.6h1.4
			c2.1,0,3.7-0.5,4.6-1.6s1.4-2.8,1.4-5.2c0-2.2-0.4-3.8-1.2-4.8c-0.8-1-2.2-1.6-4.2-1.6h-2V117.6z"/>
	</g>
	<path style="clip-path:url(#SVGID_00000181062722666549215520000008184318856970266021_);fill:#0F4C81;" d="M95.5,16.9
		c5.9,5.9,5.9,15.4,0,21.2c-5.9,5.9-15.4,5.9-21.2,0c-5.9-5.9-5.9-15.4,0-21.2C80.2,11.1,89.7,11.1,95.5,16.9"/>
	<path style="clip-path:url(#SVGID_00000181062722666549215520000008184318856970266021_);fill:#0F4C81;" d="M38.7,43.7
		c3.9,3.9,3.9,10.2,0,14.1c-3.9,3.9-10.2,3.9-14.1,0c-3.9-3.9-3.9-10.2,0-14.1C28.5,39.8,34.8,39.8,38.7,43.7"/>
	
		<line style="clip-path:url(#SVGID_00000181062722666549215520000008184318856970266021_);fill:none;stroke:#0F4C81;stroke-width:4;stroke-linecap:round;stroke-linejoin:round;stroke-miterlimit:10;" x1="71.2" y1="33.5" x2="40.8" y2="46.7"/>
	<path style="clip-path:url(#SVGID_00000181062722666549215520000008184318856970266021_);fill:#0F4C81;" d="M145.3,43.7
		c3.9,3.9,3.9,10.2,0,14.1c-3.9,3.9-10.2,3.9-14.1,0c-3.9-3.9-3.9-10.2,0-14.1C135.1,39.8,141.4,39.8,145.3,43.7"/>
	<path style="clip-path:url(#SVGID_00000181062722666549215520000008184318856970266021_);fill:#0F4C81;" d="M63,62.8
		c4.9,4.9,4.9,12.8,0,17.7c-4.9,4.9-12.8,4.9-17.7,0c-4.9-4.9-4.9-12.8,0-17.7C50.2,57.9,58.1,57.9,63,62.8"/>
	<path style="clip-path:url(#SVGID_00000181062722666549215520000008184318856970266021_);fill:#0F4C81;" d="M124.6,62.8
		c4.9,4.9,4.9,12.8,0,17.7c-4.9,4.9-12.8,4.9-17.7,0c-4.9-4.9-4.9-12.8,0-17.7C111.8,57.9,119.7,57.9,124.6,62.8"/>
	<path style="clip-path:url(#SVGID_00000181062722666549215520000008184318856970266021_);fill:#0F4C81;" d="M92,76.4
		c3.9,3.9,3.9,10.2,0,14.1c-3.9,3.9-10.2,3.9-14.1,0c-3.9-3.9-3.9-10.2,0-14.1C81.8,72.5,88.1,72.5,92,76.4"/>
	
		<line style="clip-path:url(#SVGID_00000181062722666549215520000008184318856970266021_);fill:none;stroke:#0F4C81;stroke-width:4;stroke-linecap:round;stroke-linejoin:round;stroke-miterlimit:10;" x1="98.7" y1="33.5" x2="129.1" y2="46.7"/>
	
		<line style="clip-path:url(#SVGID_00000181062722666549215520000008184318856970266021_);fill:none;stroke:#0F4C81;stroke-width:4;stroke-linecap:round;stroke-linejoin:round;stroke-miterlimit:10;" x1="93.5" y1="39.8" x2="108.6" y2="61.4"/>
	
		<line style="clip-path:url(#SVGID_00000181062722666549215520000008184318856970266021_);fill:none;stroke:#0F4C81;stroke-width:4;stroke-linecap:round;stroke-linejoin:round;stroke-miterlimit:10;" x1="84.9" y1="42.5" x2="84.9" y2="73.5"/>
	
		<line style="clip-path:url(#SVGID_00000181062722666549215520000008184318856970266021_);fill:none;stroke:#0F4C81;stroke-width:4;stroke-linecap:round;stroke-linejoin:round;stroke-miterlimit:10;" x1="76.3" y1="39.8" x2="61.3" y2="61.4"/>
	<g style="clip-path:url(#SVGID_00000181062722666549215520000008184318856970266021_);">
		<path class="st1" d="M65.8,147.1v6.5c0,0.7-0.1,1.3-0.4,1.9c-0.3,0.6-0.7,1-1.3,1.3c-0.6,0.3-1.3,0.5-2.2,0.5
			c-1.3,0-2.2-0.3-2.8-1c-0.6-0.7-1-1.6-1-2.7v-6.4h1.3v6.5c0,0.8,0.2,1.4,0.7,1.9c0.4,0.4,1.1,0.7,2,0.7c0.9,0,1.6-0.2,2-0.7
			c0.4-0.5,0.6-1.1,0.6-1.9v-6.5H65.8z"/>
		<path class="st1" d="M71.8,149.5c0.9,0,1.6,0.2,2,0.7c0.5,0.4,0.7,1.1,0.7,2.1v4.9h-1.2v-4.8c0-1.2-0.6-1.8-1.7-1.8
			c-0.8,0-1.4,0.2-1.7,0.7c-0.3,0.5-0.5,1.1-0.5,2v3.9h-1.2v-7.5h1l0.2,1h0.1c0.2-0.4,0.6-0.7,1-0.9
			C70.9,149.6,71.4,149.5,71.8,149.5z"/>
		<path class="st1" d="M77.5,146.8c0.2,0,0.4,0.1,0.5,0.2c0.1,0.1,0.2,0.3,0.2,0.6s-0.1,0.5-0.2,0.6c-0.1,0.1-0.3,0.2-0.5,0.2
			c-0.2,0-0.4-0.1-0.5-0.2c-0.1-0.1-0.2-0.3-0.2-0.6s0.1-0.5,0.2-0.6C77.1,146.9,77.3,146.8,77.5,146.8z M78.1,149.6v7.5h-1.2v-7.5
			H78.1z"/>
		<path class="st1" d="M87.5,157.1h-1.3v-8.9h-3.1v-1.1h7.5v1.1h-3.1V157.1z"/>
		<path class="st1" d="M94.7,149.5c0.1,0,0.3,0,0.4,0c0.2,0,0.3,0,0.4,0.1l-0.2,1.1c-0.1,0-0.3-0.1-0.4-0.1s-0.3,0-0.4,0
			c-0.4,0-0.7,0.1-1.1,0.3s-0.6,0.5-0.8,0.9c-0.2,0.4-0.3,0.8-0.3,1.3v4h-1.2v-7.5h1l0.1,1.4h0.1c0.2-0.4,0.5-0.8,0.9-1.1
			C93.7,149.6,94.2,149.5,94.7,149.5z"/>
		<path class="st1" d="M97.6,146.8c0.2,0,0.4,0.1,0.5,0.2c0.1,0.1,0.2,0.3,0.2,0.6s-0.1,0.5-0.2,0.6c-0.1,0.1-0.3,0.2-0.5,0.2
			c-0.2,0-0.4-0.1-0.5-0.2c-0.1-0.1-0.2-0.3-0.2-0.6s0.1-0.5,0.2-0.6C97.2,146.9,97.4,146.8,97.6,146.8z M98.2,149.6v7.5H97v-7.5
			H98.2z"/>
		<path class="st1" d="M103.5,149.5c0.6,0,1.2,0.1,1.7,0.4c0.5,0.3,0.8,0.7,1.1,1.2c0.2,0.5,0.4,1.1,0.4,1.8v0.7h-5.1
			c0,0.8,0.2,1.5,0.7,1.9c0.4,0.4,1,0.7,1.7,0.7c0.5,0,0.9,0,1.3-0.1c0.4-0.1,0.7-0.2,1.1-0.4v1.1c-0.4,0.2-0.8,0.3-1.1,0.4
			c-0.4,0.1-0.8,0.1-1.3,0.1c-0.7,0-1.3-0.1-1.9-0.4c-0.5-0.3-1-0.7-1.3-1.3c-0.3-0.6-0.5-1.3-0.5-2.1c0-0.8,0.1-1.5,0.4-2.1
			c0.3-0.6,0.7-1,1.2-1.4S102.8,149.5,103.5,149.5z M103.5,150.5c-0.6,0-1.1,0.2-1.4,0.6s-0.5,0.9-0.6,1.6h3.8
			c0-0.6-0.2-1.2-0.4-1.5C104.6,150.7,104.1,150.5,103.5,150.5z"/>
		<path class="st1" d="M112,149.5c0.1,0,0.3,0,0.4,0c0.2,0,0.3,0,0.4,0.1l-0.2,1.1c-0.1,0-0.3-0.1-0.4-0.1s-0.3,0-0.4,0
			c-0.4,0-0.7,0.1-1.1,0.3s-0.6,0.5-0.8,0.9c-0.2,0.4-0.3,0.8-0.3,1.3v4h-1.2v-7.5h1l0.1,1.4h0.1c0.2-0.4,0.5-0.8,0.9-1.1
			C111,149.6,111.5,149.5,112,149.5z"/>
	</g>
	
		<line style="clip-path:url(#SVGID_00000181062722666549215520000008184318856970266021_);fill:none;stroke:#0F4C81;stroke-linecap:round;stroke-linejoin:round;stroke-miterlimit:10;" x1="34.9" y1="138.9" x2="134.9" y2="138.9"/>
</g>
</svg>
